<?xml version="1.0" encoding="utf-8"?>
<svg id="master-artboard" viewBox="0 0 971.7757568359375 980" xmlns="http://www.w3.org/2000/svg" width="971.7757568359375px" height="980px" version="1.1" style="shape-rendering:geometricPrecision; text-rendering:geometricPrecision; image-rendering:optimizeQuality; fill-rule:evenodd; clip-rule:evenodd"><rect id="ee-background" x="0" y="0" width="971.7757568359375" height="980" style="fill: white; fill-opacity: 0; pointer-events: none;"/>
 
 <metadata id="CorelCorpID_0Corel-Layer"/>
<g transform="matrix(3.411177635192871, 0, 0, 3.411177635192871, -230.83314514160156, -14.458230972290039)"><g id="svgg"><path id="path0" d="M67.600 3.200 C 67.600 3.331,71.137 3.400,77.812 3.400 C 84.569 3.400,87.982 3.332,87.900 3.200 C 87.730 2.925,67.600 2.925,67.600 3.200 M64.354 3.345 C 64.713 3.389,65.253 3.389,65.554 3.343 C 65.854 3.297,65.560 3.261,64.900 3.262 C 64.240 3.263,63.994 3.300,64.354 3.345 M82.500 4.734 C 79.860 4.886,77.160 5.041,76.500 5.077 C 73.662 5.234,67.696 5.639,67.656 5.679 C 67.621 5.713,77.948 218.428,77.989 218.525 C 78.029 218.617,79.540 218.827,80.800 218.916 C 81.625 218.974,82.435 219.069,82.600 219.128 C 83.849 219.575,98.658 219.343,104.200 218.789 C 109.570 218.253,113.767 217.735,114.200 217.555 C 114.365 217.486,114.950 217.371,115.500 217.299 C 119.095 216.829,129.341 214.298,130.800 213.521 C 131.075 213.374,131.570 213.191,131.900 213.114 C 132.813 212.900,138.537 210.445,139.417 209.889 C 139.843 209.620,140.264 209.400,140.352 209.400 C 140.545 209.400,142.731 208.014,144.831 206.560 C 146.685 205.276,150.379 201.559,151.559 199.789 C 152.640 198.168,155.710 193.817,156.104 193.348 C 156.267 193.154,156.400 192.946,156.400 192.886 C 156.400 192.714,159.074 188.718,159.299 188.553 C 159.410 188.472,159.429 188.405,159.343 188.403 C 159.257 188.401,159.282 188.242,159.399 188.050 C 159.516 187.857,159.834 187.340,160.106 186.900 C 162.516 182.994,165.007 176.991,166.787 170.800 C 167.737 167.493,168.890 161.773,169.106 159.297 C 169.163 158.639,169.257 157.809,169.314 157.453 C 169.370 157.098,169.458 156.063,169.508 155.153 C 169.558 154.244,169.648 153.128,169.708 152.674 C 170.008 150.403,169.610 137.581,169.097 133.000 C 168.762 130.016,168.357 126.978,168.189 126.200 C 168.083 125.705,167.909 124.670,167.804 123.900 C 167.559 122.109,166.857 118.184,166.712 117.797 C 166.651 117.633,166.420 116.555,166.198 115.400 C 164.996 109.131,162.832 100.895,160.100 92.200 C 159.737 91.045,159.377 89.798,159.300 89.429 C 159.222 89.061,158.898 88.233,158.580 87.591 C 158.261 86.948,158.000 86.329,158.000 86.216 C 158.000 86.015,157.741 85.520,156.021 82.422 C 155.569 81.610,155.200 80.867,155.200 80.772 C 155.200 80.678,155.105 80.600,154.988 80.600 C 154.872 80.600,154.832 80.510,154.900 80.400 C 154.968 80.290,154.928 80.200,154.812 80.200 C 154.695 80.200,154.600 80.065,154.600 79.900 C 154.600 79.735,154.532 79.600,154.450 79.600 C 154.367 79.600,153.867 78.902,153.339 78.050 C 152.250 76.293,147.614 69.655,146.738 68.600 C 146.602 68.435,146.472 68.230,146.450 68.145 C 146.428 68.060,146.203 67.790,145.951 67.545 C 145.699 67.300,144.845 66.245,144.053 65.200 C 142.202 62.758,140.632 60.818,137.196 56.729 C 136.258 55.613,135.133 54.251,134.696 53.702 C 134.258 53.154,133.754 52.569,133.576 52.402 C 133.398 52.236,132.510 51.200,131.602 50.100 C 130.695 49.000,129.828 48.000,129.676 47.878 C 129.524 47.756,129.400 47.553,129.400 47.428 C 129.400 47.303,129.320 47.200,129.222 47.200 C 129.123 47.200,128.385 46.412,127.581 45.450 C 126.776 44.488,125.799 43.378,125.409 42.985 C 125.019 42.591,124.250 41.742,123.700 41.096 C 123.150 40.451,122.282 39.468,121.772 38.912 C 121.261 38.355,120.586 37.600,120.272 37.234 C 119.957 36.867,119.250 36.090,118.700 35.507 C 116.928 33.626,113.898 30.326,113.094 29.400 C 112.664 28.905,111.584 27.735,110.694 26.800 C 109.804 25.865,108.141 24.110,106.999 22.900 C 95.838 11.071,89.749 4.862,89.037 4.582 C 88.510 4.375,88.863 4.367,82.500 4.734 M300.360 38.149 C 300.246 38.286,299.942 39.636,299.685 41.149 C 295.818 63.914,301.924 77.079,316.570 77.551 L 319.640 77.650 319.530 78.175 C 318.758 81.845,293.956 187.022,293.880 186.947 C 293.735 186.801,289.011 148.578,281.800 89.200 C 279.923 73.745,278.076 58.539,277.696 55.409 C 277.264 51.855,276.907 49.621,276.745 49.459 C 276.036 48.750,258.609 48.570,258.100 49.266 C 257.699 49.815,259.302 55.415,262.030 62.990 L 263.222 66.300 266.702 87.600 C 277.204 151.874,284.538 198.613,284.841 203.200 L 284.900 204.100 279.869 204.210 C 276.124 204.292,274.756 204.388,274.519 204.585 C 274.055 204.969,274.036 215.415,274.498 215.798 C 275.109 216.305,304.565 215.845,304.886 215.324 C 305.030 215.091,305.425 213.820,305.765 212.500 C 308.603 201.485,325.297 137.909,332.628 110.200 C 342.186 74.071,347.607 53.925,350.429 44.051 C 351.317 40.945,351.990 38.263,351.925 38.092 C 351.763 37.672,300.709 37.729,300.360 38.149 M218.100 75.525 C 194.054 78.110,179.041 90.407,173.398 112.140 C 171.582 119.134,171.532 120.083,171.662 144.963 C 171.845 180.037,172.302 186.688,175.106 195.117 C 183.851 221.405,204.287 227.287,232.259 211.567 C 235.257 209.882,235.073 210.178,234.910 207.312 C 234.264 195.889,233.077 186.226,232.281 185.921 C 231.744 185.714,231.620 185.780,231.281 186.450 C 230.481 188.030,226.149 190.665,221.400 192.459 C 210.743 196.486,203.417 194.925,201.044 188.120 C 200.316 186.035,200.053 179.000,199.607 149.800 C 199.498 142.705,199.362 134.537,199.304 131.650 L 199.199 126.400 204.450 126.392 C 228.822 126.355,268.463 125.823,268.757 125.529 C 269.682 124.604,269.060 115.696,267.673 110.000 C 262.978 90.714,249.508 79.258,227.700 76.001 C 225.026 75.602,219.797 75.342,218.100 75.525 M213.275 99.479 C 215.940 100.783,217.930 104.426,218.568 109.171 L 218.739 110.441 217.320 110.326 C 216.539 110.263,212.463 110.153,208.263 110.081 L 200.626 109.950 201.025 108.925 C 204.219 100.726,208.724 97.252,213.275 99.479 M129.006 110.850 C 130.791 126.148,127.718 137.876,119.193 148.300 C 116.577 151.499,108.750 158.200,107.629 158.200 C 107.503 158.200,107.400 158.295,107.400 158.412 C 107.400 158.528,107.310 158.568,107.200 158.500 C 107.090 158.432,107.000 158.474,107.000 158.593 C 107.000 159.211,100.446 161.726,99.999 161.279 C 99.795 161.075,99.500 158.009,99.192 152.900 C 99.079 151.030,98.902 148.960,98.799 148.300 C 98.695 147.640,98.560 145.705,98.499 144.000 C 98.437 142.295,98.298 140.225,98.188 139.400 C 98.079 138.575,97.851 135.515,97.682 132.600 C 97.182 123.968,96.610 115.176,96.475 114.050 L 96.349 113.000 98.325 112.990 C 99.411 112.984,100.660 112.943,101.100 112.899 C 101.540 112.855,103.610 112.719,105.700 112.598 C 114.467 112.091,115.877 111.999,119.500 111.695 C 121.590 111.519,124.443 111.311,125.840 111.231 C 127.237 111.152,128.445 111.022,128.523 110.943 C 128.659 110.807,128.993 110.743,129.006 110.850 M78.086 225.250 C 78.252 227.009,78.925 237.541,79.398 245.800 C 79.509 247.725,79.911 257.310,80.293 267.100 C 80.674 276.890,81.044 285.957,81.115 287.250 L 81.244 289.600 93.296 289.600 L 105.348 289.600 105.478 280.550 C 105.550 275.572,105.663 270.963,105.729 270.306 L 105.849 269.112 106.396 270.206 C 106.697 270.808,107.640 272.938,108.492 274.940 L 110.040 278.581 111.070 278.002 C 112.197 277.369,116.820 275.353,116.919 275.452 C 116.993 275.526,117.399 286.342,117.400 288.250 L 117.400 289.600 128.369 289.600 L 139.337 289.600 139.461 286.550 C 139.529 284.873,139.772 278.370,140.002 272.100 C 140.405 261.115,141.540 237.593,141.674 237.459 C 141.710 237.423,141.801 238.498,141.876 239.847 C 143.567 270.328,146.984 281.645,156.119 287.032 C 165.020 292.280,181.370 292.707,195.521 288.061 L 197.742 287.332 197.855 272.116 C 197.958 258.305,198.399 240.809,198.740 237.000 C 198.896 235.265,199.024 236.814,199.785 249.600 C 200.234 257.152,201.800 288.098,201.800 289.422 C 201.800 289.523,204.785 289.600,208.681 289.600 L 215.562 289.600 215.679 287.550 C 215.744 286.423,215.866 281.349,215.949 276.275 L 216.100 267.051 223.525 272.275 C 230.746 277.357,233.709 279.562,242.956 286.741 C 245.406 288.643,247.485 290.200,247.575 290.200 C 247.665 290.200,247.798 287.568,247.872 284.350 C 248.183 270.752,248.748 254.474,249.150 247.500 L 249.300 244.900 249.400 247.733 C 249.455 249.292,249.566 250.633,249.647 250.714 C 249.728 250.795,251.573 250.712,253.747 250.530 C 259.833 250.020,262.400 250.065,262.400 250.680 C 262.400 250.945,262.579 253.622,262.797 256.630 C 263.186 261.975,264.057 278.675,264.327 285.952 L 264.463 289.604 274.563 289.552 L 284.664 289.500 285.024 288.220 C 285.384 286.945,285.636 283.375,286.503 267.300 C 286.675 264.110,286.992 259.070,287.207 256.100 C 287.423 253.130,287.599 250.577,287.599 250.426 C 287.600 250.201,288.271 250.166,291.366 250.233 L 295.132 250.314 298.256 238.507 C 300.286 230.835,301.411 226.227,301.467 225.350 L 301.554 224.000 267.982 224.000 L 234.410 224.000 234.502 224.550 C 234.809 226.389,235.383 238.800,235.161 238.800 C 235.105 238.800,231.558 235.473,227.279 231.407 L 219.500 224.015 198.750 224.007 C 179.119 224.000,178.000 224.019,178.000 224.350 C 178.000 224.543,178.221 228.165,178.491 232.400 C 179.485 247.993,180.000 262.231,180.000 274.123 L 180.000 278.545 178.876 278.899 C 177.344 279.381,174.511 279.244,173.097 278.621 C 170.386 277.425,169.260 275.110,168.564 269.300 C 168.256 266.736,168.228 236.027,168.525 228.450 L 168.700 224.000 141.650 224.000 L 114.600 224.000 114.609 224.750 C 114.614 225.163,115.095 234.185,115.678 244.800 C 116.261 255.415,116.729 264.116,116.717 264.135 C 116.614 264.311,109.841 264.586,108.194 264.482 L 106.071 264.348 106.142 263.324 C 106.290 261.175,108.000 225.854,108.000 224.950 L 108.000 224.000 92.984 224.000 L 77.968 224.000 78.086 225.250 " stroke="none" fill="#ffffff" fill-rule="evenodd"/></g></g></svg>